<?xml version="1.0" standalone="no"?>
<!DOCTYPE svg PUBLIC "-//W3C//DTD SVG 20010904//EN"
 "http://www.w3.org/TR/2001/REC-SVG-20010904/DTD/svg10.dtd">
<svg version="1.0" xmlns="http://www.w3.org/2000/svg"
 width="512.000000pt" height="512.000000pt" viewBox="0 0 512.000000 512.000000"
 preserveAspectRatio="xMidYMid meet">

<g transform="translate(0.000000,512.000000) scale(0.100000,-0.100000)"
fill="#000000" stroke="none">
<path d="M300 5104 c-141 -38 -248 -147 -285 -290 -14 -54 -15 -245 -13 -1700
3 -1543 4 -1642 21 -1684 47 -120 147 -214 265 -250 62 -19 95 -20 843 -20
l779 0 -2 -338 -3 -337 -240 -5 c-231 -5 -241 -6 -273 -28 -54 -39 -62 -66
-62 -214 0 -151 8 -173 77 -215 35 -21 49 -23 186 -23 144 0 149 1 172 25 32
31 32 69 0 100 -23 24 -29 25 -155 25 l-130 0 0 90 0 90 1080 0 1080 0 0 -90
0 -90 -800 0 -801 0 -24 -25 c-32 -31 -32 -69 0 -100 l24 -25 818 0 818 0 38
23 c69 42 77 64 77 216 0 117 -3 138 -20 166 -42 68 -49 69 -315 75 l-240 5
-3 337 -2 338 393 0 394 0 21 23 c31 33 29 80 -4 106 l-27 21 -1338 0 -1339 0
0 58 c-1 62 -13 86 -51 101 -30 11 -83 -8 -93 -34 -3 -9 -6 -41 -6 -71 l0 -54
-90 0 -90 0 0 54 c0 75 -31 111 -93 107 -37 -2 -57 -38 -57 -101 l0 -60 -90 0
-90 0 0 54 c0 71 -29 110 -81 108 -49 -1 -69 -30 -69 -103 l0 -59 -72 0 c-114
1 -200 50 -251 145 -19 35 -22 59 -25 203 l-4 162 2412 0 2412 0 -4 -162 c-4
-181 -12 -211 -80 -274 -70 -67 -79 -69 -338 -72 -129 -1 -245 -5 -257 -7 -29
-7 -55 -57 -47 -90 13 -52 29 -55 285 -55 207 0 245 2 300 19 122 39 225 136
266 254 17 49 18 139 18 1707 0 1568 -1 1658 -18 1707 -38 108 -134 205 -247
250 -43 17 -164 18 -2270 20 -1935 2 -2232 0 -2280 -13z m4525 -161 c47 -25
95 -74 121 -123 18 -34 19 -92 22 -1442 l2 -1408 -90 0 -90 0 -2 1323 c-3
1268 -4 1323 -22 1357 -26 49 -64 88 -111 113 l-40 22 -2055 0 c-1986 0 -2056
-1 -2090 -19 -49 -26 -88 -64 -113 -111 l-22 -40 -3 -1322 -2 -1323 -90 0 -90
0 2 1408 c3 1350 4 1408 22 1442 36 68 97 120 166 141 14 4 1020 7 2235 6
l2210 -2 40 -22z m-213 -331 l23 -23 3 -1309 2 -1310 -2080 0 -2080 0 0 1298
c0 1020 3 1302 13 1322 7 13 24 30 37 37 20 10 437 12 2042 10 l2017 -2 23
-23z m-2292 -3604 c0 -132 3 -159 21 -198 43 -95 117 -144 219 -144 102 0 176
49 219 144 18 39 21 66 21 198 l0 152 130 0 130 0 0 -340 0 -340 -500 0 -500
0 0 340 0 340 130 0 130 0 0 -152z m330 9 c0 -157 -5 -174 -60 -197 -24 -10
-36 -10 -60 0 -55 23 -60 40 -60 197 l0 143 90 0 90 0 0 -143z"/>
<path d="M2926 4450 c-16 -5 -40 -19 -53 -32 -50 -46 -53 -63 -53 -284 0 -194
1 -209 22 -245 14 -25 37 -46 64 -60 40 -19 58 -20 248 -17 227 3 234 5 284
78 21 32 22 42 22 245 0 203 -1 213 -22 245 -50 73 -57 75 -281 77 -111 1
-215 -2 -231 -7z m384 -315 l0 -175 -170 0 -170 0 0 175 0 175 170 0 170 0 0
-175z"/>
<path d="M3754 4449 c-18 -5 -48 -27 -67 -48 -44 -49 -50 -90 -46 -313 4 -149
6 -166 27 -200 14 -22 40 -45 67 -58 41 -20 57 -21 249 -18 228 3 234 5 284
79 23 33 23 38 20 251 -3 246 -5 253 -88 296 -41 21 -56 22 -230 21 -102 0
-199 -5 -216 -10z m386 -314 l0 -175 -172 2 -173 3 -3 160 c-1 87 0 165 2 172
4 10 46 13 176 13 l170 0 0 -175z"/>
<path d="M1010 4045 c-93 -21 -149 -53 -172 -97 -67 -128 -63 -339 8 -481 66
-132 191 -240 332 -289 56 -19 86 -23 187 -22 79 0 133 6 158 15 35 13 46 13
105 -2 77 -21 188 -24 264 -8 29 6 90 28 135 50 141 67 250 199 297 358 32
108 15 304 -33 386 -23 41 -81 70 -176 90 -177 37 -382 -24 -506 -151 l-42
-43 -60 55 c-131 121 -329 177 -497 139z m208 -150 c34 -8 81 -24 104 -36 58
-30 162 -135 155 -157 -23 -71 -37 -131 -37 -156 0 -28 -6 -24 -113 82 -62 61
-125 116 -140 121 -52 20 -97 -15 -97 -75 0 -22 33 -61 173 -202 l172 -174
-90 4 c-75 3 -102 9 -157 35 -114 54 -199 149 -232 262 -29 101 -15 260 26
282 53 28 150 34 236 14z m918 -10 c43 -18 57 -69 52 -191 -3 -77 -9 -101 -36
-156 -31 -63 -98 -139 -157 -178 -50 -34 -151 -60 -228 -60 l-71 0 172 173
c158 159 172 176 172 209 0 43 -28 71 -71 71 -26 0 -55 -24 -206 -174 l-175
-174 4 96 c3 87 7 104 41 172 58 118 156 194 287 224 63 14 167 9 216 -12z"/>
<path d="M3093 3606 c-28 -24 -28 -25 -26 -138 3 -136 27 -239 80 -340 39 -75
139 -185 192 -212 17 -9 31 -20 31 -24 0 -4 -20 -20 -45 -35 -102 -65 -204
-220 -241 -365 -9 -36 -16 -113 -17 -177 -2 -106 0 -116 20 -136 27 -27 75
-29 103 -4 15 14 20 31 20 69 0 28 3 75 6 104 l7 52 333 0 334 0 0 -94 c0 -85
2 -98 23 -122 31 -35 82 -38 109 -5 15 20 18 41 18 135 0 131 -17 213 -65 312
-46 96 -103 166 -180 222 l-63 46 43 27 c102 65 189 182 232 313 21 67 27 105
31 217 l4 136 -27 21 c-44 35 -86 28 -110 -19 -10 -18 -15 -59 -15 -119 l0
-90 -334 0 -333 0 -7 53 c-3 28 -6 75 -6 104 0 44 -4 55 -26 72 -35 27 -57 26
-91 -3z m747 -384 c0 -19 -60 -100 -103 -139 -46 -43 -153 -103 -183 -103 -9
0 -48 17 -86 37 -77 40 -150 108 -186 172 l-23 41 291 0 c159 0 290 -4 290 -8z
m-84 -539 c38 -39 84 -109 84 -128 0 -3 -128 -5 -285 -5 -210 0 -285 3 -285
12 0 21 62 108 103 143 22 19 72 50 111 68 l71 35 78 -40 c46 -23 98 -59 123
-85z"/>
<path d="M856 2779 c-34 -27 -35 -71 -1 -104 l24 -25 604 0 c561 0 606 1 626
18 11 9 24 31 27 49 5 26 1 37 -19 57 l-26 26 -604 0 c-596 0 -605 0 -631 -21z"/>
<path d="M855 2445 c-34 -33 -33 -77 1 -104 25 -20 39 -21 259 -21 229 0 232
0 253 23 31 33 29 80 -4 106 -25 20 -39 21 -256 21 l-229 0 -24 -25z"/>
<path d="M1609 2457 c-31 -24 -42 -56 -28 -88 6 -17 20 -34 30 -39 10 -6 65
-10 124 -10 99 0 107 2 130 25 14 13 25 36 25 50 0 14 -11 37 -25 50 -23 24
-31 25 -132 25 -69 -1 -114 -5 -124 -13z"/>
<path d="M2345 1615 c-14 -13 -25 -36 -25 -50 0 -14 11 -37 25 -50 24 -25 26
-25 215 -25 189 0 191 0 215 25 14 13 25 36 25 50 0 14 -11 37 -25 50 -24 25
-26 25 -215 25 -189 0 -191 0 -215 -25z"/>
</g>
</svg>
