<?xml version="1.0" standalone="no"?>
<!DOCTYPE svg PUBLIC "-//W3C//DTD SVG 20010904//EN"
 "http://www.w3.org/TR/2001/REC-SVG-20010904/DTD/svg10.dtd">
<svg version="1.0" xmlns="http://www.w3.org/2000/svg"
 width="920.000000pt" height="1156.000000pt" viewBox="0 0 920.000000 1156.000000"
 preserveAspectRatio="xMidYMid meet">

<g transform="translate(0.000000,1156.000000) scale(0.100000,-0.100000)"
fill="#000000" stroke="none">
<path d="M2985 11129 c-91 -39 -160 -107 -226 -221 -32 -56 -61 -94 -79 -103
-35 -18 -40 -32 -40 -109 0 -51 -4 -66 -21 -82 -12 -10 -33 -41 -46 -69 -24
-46 -25 -57 -19 -138 9 -126 -9 -229 -50 -297 -27 -44 -34 -66 -34 -108 l0
-52 44 -12 c42 -11 44 -14 39 -39 -4 -22 2 -37 26 -66 21 -25 31 -48 31 -71 0
-20 6 -35 15 -38 10 -4 13 -13 9 -26 -11 -35 16 -107 48 -130 26 -18 38 -20
95 -14 54 6 76 14 131 51 59 40 67 43 76 27 5 -9 49 -72 98 -138 79 -109 88
-126 88 -165 0 -44 -1 -44 -78 -94 -124 -80 -179 -125 -247 -206 -58 -70 -66
-86 -94 -180 -27 -92 -34 -107 -68 -134 -66 -52 -207 -187 -224 -214 -9 -14
-56 -92 -104 -174 -48 -81 -91 -150 -95 -152 -18 -11 -44 11 -99 84 -89 118
-186 295 -240 437 -55 147 -55 138 -4 299 32 103 35 119 34 235 -1 118 -3 126
-25 145 -15 13 -27 40 -36 83 l-13 62 -38 0 c-36 0 -39 -2 -40 -27 0 -16 -4
-37 -9 -48 -7 -16 -9 -13 -15 23 -7 41 -8 42 -49 42 -31 0 -44 -5 -54 -21 -10
-16 -17 -18 -25 -10 -6 6 -23 11 -37 11 -20 0 -33 -10 -54 -45 -16 -24 -44
-54 -63 -65 -21 -13 -35 -30 -39 -48 -5 -24 -11 -29 -36 -30 -17 0 -32 -3 -35
-5 -2 -3 -7 -38 -10 -79 -4 -65 -2 -81 26 -150 17 -42 31 -83 31 -90 0 -8 20
-41 43 -74 34 -46 55 -95 96 -219 88 -267 226 -614 284 -717 90 -158 194 -311
237 -347 38 -30 45 -33 88 -27 60 9 148 43 189 74 18 13 57 56 88 96 30 40 85
97 121 126 36 29 90 83 121 119 31 36 60 68 66 70 5 2 54 -41 109 -95 l99 -99
-7 -131 -7 -131 43 -112 c23 -61 59 -153 81 -203 21 -50 39 -105 39 -122 0
-17 -9 -89 -20 -161 -11 -71 -19 -137 -19 -145 0 -8 20 -31 45 -50 55 -43 113
-144 160 -283 20 -56 36 -106 36 -112 1 -5 -36 -72 -82 -149 -53 -89 -78 -141
-71 -145 7 -5 -47 -95 -147 -247 -141 -214 -168 -261 -249 -444 -50 -113 -125
-289 -167 -392 -94 -233 -150 -346 -232 -468 -75 -112 -86 -156 -77 -309 5
-92 4 -101 -17 -131 -17 -24 -24 -52 -30 -123 -8 -96 -27 -156 -110 -352 -58
-137 -135 -372 -164 -501 -29 -129 -105 -317 -208 -514 -39 -74 -72 -137 -74
-139 -2 -2 -21 1 -41 7 -34 10 -40 9 -63 -11 -59 -53 -54 -53 -125 -7 -63 41
-67 42 -122 35 -42 -5 -87 -22 -163 -62 -91 -47 -114 -56 -175 -60 l-70 -5
-80 56 c-71 50 -85 56 -130 56 -45 0 -55 -4 -82 -32 -27 -29 -32 -43 -38 -108
-6 -69 -4 -82 26 -159 20 -53 61 -128 110 -198 71 -104 86 -120 180 -188 113
-82 203 -119 319 -131 57 -6 70 -11 105 -44 59 -55 228 -146 336 -180 91 -29
151 -36 196 -24 31 8 80 100 92 171 14 85 47 170 88 233 26 39 40 75 49 125
12 66 12 71 -7 87 -10 9 -25 18 -32 21 -18 6 34 150 95 267 28 52 85 142 127
200 43 58 104 143 136 190 32 47 118 166 191 265 115 158 136 193 172 287 69
180 75 211 93 523 6 105 17 222 25 260 l14 70 109 105 c60 58 124 127 142 155
55 82 166 201 252 271 105 85 187 180 343 400 70 99 128 181 131 183 6 8 33
-32 58 -87 25 -54 115 -189 168 -252 228 -269 863 -937 919 -966 53 -28 140
-12 273 50 84 40 437 142 607 176 55 11 126 20 157 20 58 0 165 26 331 79 52
17 172 47 265 67 l170 36 260 -6 c143 -3 302 -9 353 -13 l92 -6 65 -98 65 -99
60 0 c77 0 377 -48 410 -65 59 -32 125 -102 144 -154 15 -44 24 -54 62 -70 24
-11 75 -23 113 -27 l69 -6 31 60 c26 52 31 73 31 134 0 40 -5 102 -11 137 -14
91 -99 243 -211 378 -75 90 -97 110 -134 123 -54 18 -86 63 -108 147 -33 127
-41 141 -163 267 -64 66 -153 151 -197 189 -104 88 -125 89 -181 11 -22 -31
-89 -100 -150 -154 -60 -54 -132 -128 -160 -164 -33 -43 -57 -65 -71 -66 -12
0 -88 9 -169 20 -96 13 -204 20 -309 20 -88 0 -235 7 -326 15 -192 17 -312 19
-428 5 -77 -9 -99 -17 -280 -107 -109 -54 -217 -105 -242 -114 l-45 -16 -52
33 c-78 50 -216 237 -238 323 -9 35 -30 101 -46 145 -16 45 -40 117 -53 161
-32 109 -91 203 -196 310 -102 104 -162 199 -180 283 -14 70 -11 106 20 222
33 124 32 214 -5 325 -36 110 -162 361 -275 550 -46 77 -106 191 -133 253 -48
113 -48 113 -52 240 -2 70 -1 107 2 82 2 -25 8 -49 14 -55 5 -5 9 -26 9 -47 0
-42 19 -58 69 -58 20 0 31 -5 31 -14 0 -8 9 -24 19 -37 18 -23 25 -24 113 -22
143 4 191 26 285 129 42 46 83 84 92 84 9 0 57 35 106 76 50 42 141 120 204
172 63 53 196 177 295 277 100 100 200 194 224 209 23 14 42 31 42 36 0 25 57
126 95 168 50 55 60 91 45 157 -9 40 -22 58 -73 107 -69 65 -179 126 -277 153
-36 9 -103 37 -150 60 -47 23 -113 54 -148 69 -34 14 -86 41 -115 60 -38 25
-83 40 -172 60 -149 34 -149 34 -238 99 -39 30 -122 82 -184 116 -100 55 -120
62 -185 67 -45 4 -90 2 -117 -5 -23 -7 -45 -10 -48 -8 -2 3 3 31 11 64 22 83
32 327 17 388 -7 26 -10 49 -9 51 8 8 193 -209 224 -262 29 -51 33 -68 34
-126 0 -52 3 -68 14 -68 23 0 40 69 37 150 -2 72 -5 78 -54 150 -28 41 -85
118 -127 170 -99 123 -168 233 -214 345 -29 71 -51 105 -106 166 -39 43 -70
85 -70 96 0 10 -7 62 -17 116 l-17 98 -80 46 -81 45 -67 -36 c-88 -47 -137
-48 -207 -5 -28 18 -51 33 -51 35 0 1 27 0 60 -3 84 -8 79 10 -23 73 -137 86
-235 131 -302 138 -53 5 -68 2 -130 -25z m270 -163 l70 -14 -97 -1 c-90 -1
-110 4 -91 22 9 10 37 8 118 -7z m1367 -2207 c182 -58 203 -63 368 -78 164
-15 175 -17 178 -37 2 -11 -32 -92 -75 -180 l-78 -158 -178 -179 -179 -179
-51 7 c-31 5 -92 28 -151 57 -87 44 -103 49 -140 43 -22 -4 -50 -12 -60 -17
-17 -9 -18 -7 -12 13 4 13 18 86 31 161 13 75 30 149 38 165 13 23 13 30 1 49
-11 16 -12 28 -5 45 6 13 20 69 32 124 19 88 69 225 83 225 2 0 91 -28 198
-61z m-298 -858 c3 -4 -21 -27 -54 -50 -60 -42 -60 -42 -60 -17 0 20 10 31 48
50 53 28 59 30 66 17z"/>
</g>
</svg>
