<?xml version="1.0" standalone="no"?>
<!DOCTYPE svg PUBLIC "-//W3C//DTD SVG 20010904//EN"
 "http://www.w3.org/TR/2001/REC-SVG-20010904/DTD/svg10.dtd">
<svg version="1.0" xmlns="http://www.w3.org/2000/svg"
 width="442.000000pt" height="132.000000pt" viewBox="0 0 442.000000 132.000000"
 preserveAspectRatio="xMidYMid meet">

<g transform="translate(0.000000,132.000000) scale(0.100000,-0.100000)"
fill="#000000" stroke="none">
<path d="M276 1229 c-62 -15 -102 -46 -128 -97 l-23 -47 0 -485 0 -485 37 -3
37 -3 3 483 c3 543 0 521 79 552 55 22 541 24 594 2 72 -30 69 -15 75 -551 l5
-480 33 -3 32 -3 0 478 c0 318 -4 491 -11 518 -17 59 -73 110 -137 124 -63 13
-538 13 -596 0z"/>
<path d="M1323 1230 c-54 -13 -97 -44 -123 -91 l-25 -44 0 -420 0 -420 25 -45
c17 -29 41 -53 70 -70 l45 -25 352 -3 353 -3 25 25 25 25 0 288 c0 158 -4 293
-8 299 -19 29 -56 34 -246 34 l-196 0 0 -35 0 -35 173 0 c121 0 177 -4 185
-12 17 -17 17 -479 0 -496 -9 -9 -93 -12 -317 -12 -344 0 -360 3 -393 70 -16
31 -18 73 -18 418 0 417 2 433 56 469 26 16 59 18 396 21 l368 3 0 34 0 35
-357 -1 c-197 -1 -372 -4 -390 -9z"/>
<path d="M2220 1202 l0 -40 148 -4 c224 -5 232 -14 232 -268 l0 -160 26 -10
c35 -14 138 -13 169 2 l25 11 0 161 c0 250 15 266 241 266 l137 0 4 36 c3 24
0 38 -9 41 -8 3 -80 3 -161 1 -126 -4 -153 -8 -189 -26 -81 -42 -103 -101
-103 -273 0 -98 -3 -118 -18 -132 -33 -30 -40 -8 -44 143 -3 133 -5 149 -28
190 -17 30 -40 53 -70 70 -41 22 -58 25 -202 28 l-158 4 0 -40z"/>
<path d="M3515 1231 c-48 -12 -92 -39 -114 -69 -35 -50 -43 -109 -39 -293 3
-168 4 -175 30 -220 47 -80 63 -84 358 -87 160 -2 259 -7 267 -14 17 -14 18
-189 1 -206 -9 -9 -97 -12 -335 -12 l-323 0 0 -35 0 -35 350 0 351 0 24 25
c24 23 25 29 25 165 0 136 -1 142 -25 165 l-24 25 -264 0 c-258 0 -265 0 -298
23 -54 36 -59 55 -59 237 0 148 2 168 20 198 37 60 51 62 445 62 l356 0 -3 38
-3 37 -355 2 c-195 0 -368 -2 -385 -6z"/>
<path d="M1345 1065 l-25 -24 0 -366 0 -366 25 -24 24 -25 251 0 251 0 24 25
c24 23 25 29 25 163 0 126 -2 142 -21 166 -20 26 -22 26 -150 26 l-129 0 0
-40 0 -40 98 0 c63 0 102 -4 110 -12 8 -8 12 -46 12 -103 0 -57 -4 -95 -12
-103 -17 -17 -409 -17 -426 0 -17 17 -17 639 0 656 9 9 98 12 340 12 l328 0 0
40 0 40 -350 0 -351 0 -24 -25z"/>
<path d="M295 1056 l-25 -25 2 -458 3 -458 38 -3 37 -3 0 438 c0 328 3 442 12
451 18 18 412 17 427 -1 7 -10 12 -148 13 -448 l3 -434 33 -3 32 -3 0 463 c0
385 -2 467 -14 484 -13 18 -30 19 -275 22 l-261 3 -25 -25z"/>
<path d="M2220 1045 l0 -35 103 0 c67 0 107 -4 115 -12 17 -17 17 -639 0 -656
-8 -8 -48 -12 -115 -12 l-103 0 0 -35 0 -35 130 0 c126 0 132 1 155 25 l25 24
0 361 0 361 -25 24 c-23 24 -29 25 -155 25 l-130 0 0 -35z"/>
<path d="M2915 1056 l-25 -25 0 -361 0 -361 25 -25 c24 -24 28 -25 157 -22
l133 3 0 30 0 30 -104 3 c-58 1 -111 8 -118 14 -10 8 -13 79 -13 328 0 249 3
320 13 328 7 6 60 13 118 14 l104 3 0 30 0 30 -133 3 c-129 3 -133 2 -157 -22z"/>
<path d="M3545 1068 c-11 -6 -23 -16 -27 -22 -4 -6 -8 -75 -8 -153 0 -199 -27
-183 303 -183 295 0 316 -4 350 -70 15 -30 17 -57 15 -200 -3 -176 -7 -191
-60 -228 -20 -15 -67 -17 -390 -20 l-368 -3 0 -40 0 -40 373 3 373 3 49 25
c38 20 55 37 75 75 24 47 25 57 25 225 0 189 -7 227 -52 281 -52 61 -64 64
-338 67 -154 2 -255 8 -262 14 -17 14 -18 179 -1 196 9 9 97 12 336 12 l323 0
-3 33 -3 32 -345 2 c-244 2 -351 -1 -365 -9z"/>
<path d="M2617 622 c-14 -16 -17 -43 -17 -173 0 -242 -16 -259 -242 -259
l-138 0 0 -41 0 -41 158 4 c145 3 160 5 202 28 76 42 94 88 100 252 5 143 14
173 45 148 12 -10 15 -36 15 -129 0 -172 22 -231 103 -273 36 -19 62 -23 189
-26 82 -2 154 -2 161 1 9 3 12 17 9 41 l-4 36 -137 0 c-225 0 -241 17 -241
261 0 190 1 189 -112 189 -60 0 -78 -4 -91 -18z"/>
</g>
</svg>
