<?xml version="1.0" standalone="no"?>
<!DOCTYPE svg PUBLIC "-//W3C//DTD SVG 20010904//EN"
 "http://www.w3.org/TR/2001/REC-SVG-20010904/DTD/svg10.dtd">
<svg version="1.0" xmlns="http://www.w3.org/2000/svg"
 width="225.000000pt" height="225.000000pt" viewBox="0 0 225.000000 225.000000"
 preserveAspectRatio="xMidYMid meet">

<g transform="translate(0.000000,225.000000) scale(0.100000,-0.100000)"
fill="#000000" stroke="none">
<path d="M690 2133 c-355 -62 -655 -115 -667 -118 l-23 -5 0 -885 0 -885 23
-5 c12 -3 312 -56 667 -118 l645 -113 3 133 3 133 412 0 c309 0 418 3 437 13
14 7 33 28 42 47 17 32 18 91 18 795 0 704 -1 763 -18 795 -9 19 -28 40 -42
47 -19 10 -128 13 -437 13 l-412 0 -3 133 -3 133 -645 -113z m1455 -1008 l0
-750 -402 -3 -403 -2 0 132 0 132 60 -59 60 -59 73 69 c39 39 106 103 148 144
l77 73 -146 143 -147 143 -62 -55 -63 -55 0 291 0 291 188 -2 187 -3 3 -112 3
-113 -74 0 c-116 0 -115 -5 18 -161 63 -74 119 -135 124 -137 4 -1 61 58 126
133 137 158 138 165 24 165 l-69 0 0 178 c0 125 -4 182 -12 190 -9 9 -82 12
-265 12 l-253 0 0 85 0 85 403 -2 402 -3 0 -750z m-1354 469 c40 -12 66 -28
100 -63 53 -55 73 -113 74 -211 0 -136 -55 -232 -167 -289 -58 -29 -79 -34
-162 -39 l-96 -5 0 -158 0 -159 -47 0 c-27 0 -65 3 -86 6 l-37 7 2 456 3 456
90 6 c184 11 270 9 326 -7z"/>
<path d="M540 1300 l0 -142 76 4 c71 3 78 6 104 35 54 60 47 172 -13 217 -20
15 -47 21 -97 24 l-70 4 0 -142z"/>
</g>
</svg>
